<svg width="56" height="18" viewBox="0 0 56 18" xmlns="http://www.w3.org/2000/svg"><title>americanexpress</title><path d="M55.417 16.917c-.457.674-1.348.842-2.117.842h-3.008v-1.397H53.3c.385 0 .794-.12.794-.6 0-1.373-4.02.53-4.02-2.576 0-1.323 1.035-1.95 2.24-1.95h3.103v1.373h-2.84c-.432 0-.866.072-.866.6 0 1.156 2.72-.023 3.707 1.277v2.43zm-8.205.842H44.18v-1.397h3.032c.385 0 .817-.096.817-.6 0-1.397-4.02.53-4.02-2.576 0-1.323 1.01-1.95 2.215-1.95h3.13v1.373h-2.866c-.41 0-.867.072-.867.6 0 1.42 4.043-.648 4.043 2.48 0 1.54-1.06 2.07-2.454 2.07zM41.966 3.73l-1.06-2.6-1.082 2.6h2.142zm1.275 14.03h-5.197v-6.522h5.198v1.347h-3.633v1.18h3.562v1.323h-3.563v1.3l3.634.024v1.347zm8.206-11.24h-2.214l-2.935-4.883V6.52H43.12l-.625-1.442H39.27l-.6 1.443h-1.806c-2.14 0-3.104-1.105-3.104-3.2 0-2.19.987-3.32 3.2-3.32h1.517v1.42c-1.637-.024-3.128-.385-3.128 1.853 0 1.107.263 1.877 1.514 1.877h.7L39.775.024h2.334l2.623 6.16V.025h2.382l2.743 4.524V.024h1.588V6.52zm-16.988 6.065h-1.974v1.468h1.95c.53 0 1.035-.12 1.035-.77 0-.6-.53-.698-1.012-.698zM31.402 6.52h1.588V0h-1.588v6.52zm4.668 8.207c.867.313 1.035.89 1.035 1.733v1.3H35.54v-1.084c0-1.107-.36-1.3-1.394-1.3h-1.662v2.383H30.92v-6.522h3.706c1.228 0 2.55.217 2.55 1.757 0 .722-.384 1.443-1.106 1.732zm-8.3-13.355h-1.975v1.444h1.95c.528 0 1.034-.12 1.034-.746 0-.602-.53-.698-1.01-.698zm-.218 11.213H25.53v1.66h1.998c.553 0 .987-.264.987-.865 0-.578-.434-.795-.963-.795zm1.852-9.07c.89.312 1.035.865 1.035 1.732V6.52h-1.565c-.023-1.394.337-2.356-1.395-2.356h-1.685V6.52h-1.54V0l3.682.024c1.25 0 2.575.193 2.575 1.733 0 .746-.41 1.468-1.108 1.757zm-5.437 13.643v-5.222l-2.383 2.575 2.383 2.648zM23.173 6.52H17.95V0h5.223v1.372h-3.658v1.18h3.56v1.323h-3.56v1.3h3.658V6.52zm-3.61 7.967l-1.684-1.902h-3.924v1.18h3.417v1.323h-3.417v1.3h3.826l1.78-1.9zm5.967 1.082v2.19H22.5l-1.927-2.167-1.997 2.166h-6.16v-6.522h6.257l1.925 2.142 1.973-2.142h4.982c1.468 0 2.623.505 2.623 2.142 0 2.622-2.863 2.19-4.645 2.19zM4.98 3.73l-1.083-2.6-1.058 2.6h2.14zm11.816 2.79h-1.588v-5.1l-2.263 5.1h-1.37l-2.262-5.1v5.1H6.136L5.534 5.08H2.286L1.684 6.52H0L2.79 0H5.1L7.75 6.185V0h2.55l2.046 4.428L14.197 0h2.6v6.52z" fill="#828282" fill-rule="evenodd"/></svg>