<svg id="Layer_1" data-name="Layer 1" xmlns="http://www.w3.org/2000/svg" xmlns:xlink="http://www.w3.org/1999/xlink" viewBox="0 0 186.59 65"><defs><style>.cls-1{fill:#fff;}.cls-2{fill:#0088c2;}.cls-3{fill:#295784;}.cls-4{mask:url(#mask);}.cls-5{fill:#3a3431;}</style><mask id="mask" x="0" y="0.48" width="50.46" height="64.35" maskUnits="userSpaceOnUse"><g id="d"><path id="c" class="cls-1" d="M50.45,64.83H0V.48H50.45Z"/></g></mask></defs><title>Artboard 1</title><path class="cls-2" d="M60.85,31.73a5.16,5.16,0,0,0-3.91-1.88c-3.32,0-5.22,3.06-5.22,6.12s2,6,5.2,6a5.42,5.42,0,0,0,3.93-1.89v4.12a9.23,9.23,0,0,1-4,1.06c-5,0-8.68-4.3-8.68-9.2s3.55-9.48,8.75-9.48a8.26,8.26,0,0,1,4,1v4.14ZM73,34V27h3.46V44.77H73V36.84h-6.4v7.93H63.13V27h3.46v7m15.86-4v3.9H88v3H82.45v4.8h5.72v3H79V27h9.18v3m10.66.89a3.2,3.2,0,0,0-2.66-1.46,2.11,2.11,0,0,0-2.16,2c0,3,7,1.75,7,7.7,0,3.55-2.21,6.07-5.83,6.07a6.28,6.28,0,0,1-5.46-3.46L92,39.59a3.64,3.64,0,0,0,3.2,2.59,2.37,2.37,0,0,0,2.29-2.57c0-1.83-1.7-2.35-3.09-2.89-2.28-.94-3.95-2.09-3.95-4.85a5.17,5.17,0,0,1,5.18-5.32,7.28,7.28,0,0,1,4.84,2Zm12.38,0a3.21,3.21,0,0,0-2.66-1.46,2.12,2.12,0,0,0-2.17,2c0,3,7,1.75,7,7.7,0,3.55-2.21,6.07-5.83,6.07a6.28,6.28,0,0,1-5.46-3.46l2.23-2.19a3.64,3.64,0,0,0,3.2,2.59,2.37,2.37,0,0,0,2.28-2.57c0-1.83-1.69-2.35-3.08-2.89-2.28-.94-4-2.09-4-4.85A5.17,5.17,0,0,1,108,26.55a7.28,7.28,0,0,1,4.84,2l-1.62,2.4Z"/><path class="cls-3" d="M125.09,34V27h3.46V44.77h-3.46V36.84h-6.4v7.93h-3.46V27h3.46v7M139,30c-3.27,0-5.2,2.89-5.2,5.76s1.37,6.1,5.2,6.1,5.2-3.37,5.2-6.1S142.3,30,139,30m0,15.27c-5.41,0-8.77-4.14-8.77-9.37s3.48-9.32,8.77-9.32,8.78,4.05,8.78,9.32-3.36,9.37-8.78,9.37M149.4,27h3.46V37c0,2.19.19,5.27,3.13,5.27s3.13-3.08,3.13-5.27V27h3.46V37.64c0,4.33-1.83,7.6-6.59,7.6s-6.59-3.27-6.59-7.6V27Zm24,3.91a3.2,3.2,0,0,0-2.66-1.46,2.11,2.11,0,0,0-2.16,2c0,3,7,1.75,7,7.7,0,3.55-2.22,6.07-5.84,6.07a6.28,6.28,0,0,1-5.46-3.46l2.23-2.19a3.64,3.64,0,0,0,3.2,2.59A2.37,2.37,0,0,0,172,39.61c0-1.83-1.7-2.35-3.09-2.89-2.28-.94-4-2.09-4-4.85a5.17,5.17,0,0,1,5.18-5.32,7.32,7.32,0,0,1,4.85,2l-1.63,2.4Zm7.49-.89v3.9h5.5v3h-5.5v4.8h5.72v3h-9.18V27h9.18v3"/><path class="cls-2" d="M49.73,54.28c-1.26-5.88-8.87-3.49-15.81-1.48a33.53,33.53,0,0,1-8.16,1.69H24.1A18.86,18.86,0,0,1,12,50.36,19.21,19.21,0,0,1,7.1,44.29L7,44.37l.1-.06a22.86,22.86,0,0,0,4.7,6.22l.74.65.07.06A19.19,19.19,0,0,0,15,53h0c.25.16.51.3.77.44l.2.11.77.39.09,0c.58.26,1.18.5,1.78.7h0a16.88,16.88,0,0,0,5.45.9h1.66c7.18,0,22.16-8.67,24-.21a34.34,34.34,0,0,1,.71,6.5,1.21,1.21,0,0,0,0-.19,35,35,0,0,0-.72-7.38M41.29,17.73a18.51,18.51,0,0,0-14.93-7H24.7C17.51,10.71,0,18,0,3.55c0-.1,0-.18,0-.27C.58,16.75,17.63,9.75,24.69,9.75h1.66c5.95,0,11.28,3.09,14.94,8"/><g class="cls-4"><path class="cls-3" d="M14.83,46.32a1.14,1.14,0,0,0-.1.45v.3h15v-.3a1.14,1.14,0,0,0-.1-.45Zm21.62-19.5L34.24,23.7l-.49-.08c.16-1.47-2.3-3.09-2.3-3.09a11.88,11.88,0,0,1,3.22,2.65l-.06.37,1.84,3.27Zm-.55-3.34.23-.57A19.29,19.29,0,0,0,34,20.18l-1.26-1a6.18,6.18,0,0,0-4-4.83s1.33,1.11,1.1,1.91A5.37,5.37,0,0,0,27,14.73c-1.73-.27-3.57.2-3.91-2.51a2.05,2.05,0,0,0,.42,3.17c2,1.44-.66,2.37-1.48,2.08a6.09,6.09,0,0,0-6.37,1.12c-2.45,2.37-2.88,2.3-4.35,2.2s2.32,1.66,5-.87,2.95,1.56.8,2.88S13.24,24.88,12.94,27s-.4,2.22-1.19,3.14a3.33,3.33,0,0,0,2-2.8c.19-2.12,4.59-.33,1.75,1.83S12,32,12,34.47a3.3,3.3,0,0,1-2.61,3A4.2,4.2,0,0,0,13.57,34a1.82,1.82,0,0,1,3-1.34A2.28,2.28,0,0,1,16.89,36c-3.78,5.5-5.24,10-4.16,9.87h4.82c1,0,10.82,0,13.59,0,1.58,0,3.69-7.31-1.95-13.28a9.57,9.57,0,0,1-3-8.48,4.75,4.75,0,0,0,5,3.21,7.63,7.63,0,0,1,1.33,2.07,4.3,4.3,0,0,1,.33,2.55,2.1,2.1,0,0,0,2.49.93s-1.52-1-1-2.16c1.69-1.41,2.83,1.37,2.83,1.37l1.56-.38.65-1.31a54.72,54.72,0,0,0-3.47-6.9ZM50.44,61.84a34.32,34.32,0,0,0-.71-6.49c-1.26-5.89-8.92-3.47-15.87-1.46-1,.27-1.87.54-2.77.77a22.53,22.53,0,0,1-5.33.9H24.1a17.11,17.11,0,0,1-5.45-.9,18.79,18.79,0,0,1-6.84-4.13A23.09,23.09,0,0,1,7.1,44.31L7,44.37c-.65.41-4.63,3.23-6.29,11A35.52,35.52,0,0,0,0,62.73a1.88,1.88,0,0,0,2.1,2.09H6.46a1.91,1.91,0,0,0,2.09-2.09A1.55,1.55,0,0,1,10.26,61h6.62a1.74,1.74,0,0,1,1.71,1.71,1.92,1.92,0,0,0,2.09,2.1h9.1a1.92,1.92,0,0,0,2.09-2.1A1.73,1.73,0,0,1,33.58,61h6.61a1.54,1.54,0,0,1,1.71,1.71A1.91,1.91,0,0,0,44,64.82h4.36a1.89,1.89,0,0,0,2.1-2.09c0-.3,0-.6,0-.89ZM48.36.49H44a1.91,1.91,0,0,0-2.1,2.09,1.54,1.54,0,0,1-1.71,1.71H33.58a1.74,1.74,0,0,1-1.71-1.71,1.92,1.92,0,0,0-2.1-2.1H20.68a1.92,1.92,0,0,0-2.1,2.1,1.72,1.72,0,0,1-1.7,1.71H10.26A1.55,1.55,0,0,1,8.55,2.58,1.91,1.91,0,0,0,6.46.49H2.1A1.89,1.89,0,0,0,0,2.59c0,.24,0,.47,0,.7C.58,16.75,17.63,9.75,24.69,9.75h1.66c5.95,0,11.28,3.09,14.94,8A24.74,24.74,0,0,1,43.35,21s7.1-4,7.1-18.41A1.88,1.88,0,0,0,48.36.49Zm-22.6,54a33.53,33.53,0,0,0,8.16-1.69V51.26a1.14,1.14,0,0,0-1.13-1.13H12.66a1,1,0,0,0-.67.23A18.86,18.86,0,0,0,24.1,54.49Zm-13.1-4.8v-1a1.12,1.12,0,0,1,1.13-1.13H30.7a1.12,1.12,0,0,1,1.13,1.13v1Z"/></g><path class="cls-3" d="M83.43,56.87a1.59,1.59,0,0,0-1.19-.56A1.56,1.56,0,0,0,80.81,58a1.5,1.5,0,0,0,1.49,1.63,1.52,1.52,0,0,0,1.13-.55v1.56A2.75,2.75,0,0,1,82,61a2.89,2.89,0,0,1-2.87-3,2.94,2.94,0,0,1,3-3,2.48,2.48,0,0,1,1.32.36v1.56ZM86.18,51v4.6h0A1.75,1.75,0,0,1,87.68,55c1.52,0,2,1.07,2,2.39v3.47H88v-3c0-.68,0-1.56-.88-1.56s-1,1.07-1,1.76v2.81H84.56V51Zm8.27,6.21a1.19,1.19,0,0,0-1.08-1.14,1.16,1.16,0,0,0-1.08,1.14Zm-2.21,1c0,.71.28,1.52,1.12,1.52A1.19,1.19,0,0,0,94.45,59l1.49.24A2.62,2.62,0,0,1,93.36,61a2.75,2.75,0,0,1-2.83-3c0-1.72.91-3.08,2.75-3.08S96,56.32,96,58v.2Zm7.43-1.76a1.27,1.27,0,0,0-.85-.39.52.52,0,0,0-.53.48c0,.42.58.54,1.16.79A1.64,1.64,0,0,1,100.62,59a2,2,0,0,1-2.21,2,2.62,2.62,0,0,1-2-1l.74-1a1.7,1.7,0,0,0,1.2.66.61.61,0,0,0,.65-.61c0-.5-.56-.61-1.13-.86a1.5,1.5,0,0,1-1.13-1.49,1.75,1.75,0,0,1,1.8-1.84,3,3,0,0,1,1.83.59l-.7.94Zm4.76,0a1.27,1.27,0,0,0-.85-.39.53.53,0,0,0-.54.48c0,.42.59.54,1.17.79A1.64,1.64,0,0,1,105.38,59a2,2,0,0,1-2.21,2,2.62,2.62,0,0,1-2-1l.74-1a1.72,1.72,0,0,0,1.21.66.61.61,0,0,0,.64-.61c0-.5-.56-.61-1.13-.86a1.51,1.51,0,0,1-1.13-1.49,1.75,1.75,0,0,1,1.8-1.84,3,3,0,0,1,1.83.59l-.7.94Zm5.71,4.34h1.62V55.13h-1.62v5.68Zm1.77-8.06a1,1,0,1,1-1-1,1,1,0,0,1,1,1Zm2.73,2.9h0a1.7,1.7,0,0,1,1.48-.7c1.53,0,2,1.07,2,2.39V60.8h-1.62v-3c0-.68,0-1.56-.88-1.56s-1,1.07-1,1.76v2.8H113V55.13h1.62v.52Zm11.94,1.57a1.19,1.19,0,0,0-1.08-1.14,1.16,1.16,0,0,0-1.08,1.14Zm-2.21,1c0,.71.28,1.52,1.12,1.52a1.19,1.19,0,0,0,1.09-.77l1.49.24A2.63,2.63,0,0,1,125.49,61a2.74,2.74,0,0,1-2.83-3c0-1.72.91-3.08,2.75-3.08s2.69,1.38,2.69,3.09v.2Zm6.81.1,1.17-3.2h1.77l-2.61,5.79h-.83l-2.6-5.79h1.78M138,57.22a1.19,1.19,0,0,0-1.07-1.14,1.17,1.17,0,0,0-1.09,1.14Zm-2.2,1c0,.71.27,1.52,1.12,1.52A1.18,1.18,0,0,0,138,59l1.49.24A2.6,2.6,0,0,1,136.92,61a2.74,2.74,0,0,1-2.83-3c0-1.72.91-3.08,2.75-3.08s2.69,1.38,2.69,3.09v.2Zm6.25-2.51h0a1.61,1.61,0,0,1,1.41-.77,1.71,1.71,0,0,1,.67.14l-.2,1.5a1.16,1.16,0,0,0-.67-.21c-1.12,0-1.23,1-1.23,1.87v2.56h-1.62V55.13h1.62v.59Zm2.36-.59h1.84l1.35,3.22,1.46-3.22h1.8l-4.12,8.7H145l1.87-3.89m9.8-8.93v4.6h0a1.75,1.75,0,0,1,1.48-.66c1.52,0,2,1.07,2,2.39v3.47h-1.62v-3c0-.68,0-1.56-.87-1.56s-1,1.07-1,1.76v2.81H155V51Zm6,7A1.36,1.36,0,1,0,164,56.38,1.49,1.49,0,0,0,162.61,58m4.32,0a3,3,0,1,1-3-3,2.87,2.87,0,0,1,3,3m2.51-2.33h0a1.71,1.71,0,0,1,1.39-.69,1.79,1.79,0,0,1,1.63.89,2,2,0,0,1,1.65-.89c1.45,0,1.8,1.08,1.8,2.32V60.8h-1.61v-3c0-.55,0-1.58-.77-1.58s-.86,1.19-.86,1.78v2.79h-1.62V57.93c0-.56.07-1.69-.78-1.69s-.85,1.18-.85,1.78v2.79h-1.62V55.13h1.62v.51Zm11.31,1.58a1.19,1.19,0,0,0-1.07-1.14,1.17,1.17,0,0,0-1.09,1.14Zm-2.21,1c0,.71.28,1.52,1.12,1.52a1.18,1.18,0,0,0,1.09-.77l1.49.24A2.6,2.6,0,0,1,179.67,61a2.74,2.74,0,0,1-2.83-3c0-1.72.91-3.08,2.75-3.08s2.69,1.38,2.69,3.09v.2ZM185.13,60a1,1,0,1,1-2.06,0,1,1,0,0,1,2.06,0"/><path class="cls-5" d="M69,16.76h-5.9l0-.53.37-.11c.15,0,.21-.11.21-.22V11.78c0-.11-.06-.19-.21-.22l-.37-.11,0-.54h6V13h-1L68,12.37c-.21-.76-.7-.92-1.8-.92h-.61v2.14h.2c.22,0,.63-.08.74-.39l.25-.65h.69l-.25,2.51h-.66l-.13-.58c-.06-.3-.22-.41-.68-.41h-.16v2.16h.66c1,0,1.57-.16,1.78-.94l.17-.63h1L69,16.76Zm6.16.15A9.86,9.86,0,0,1,73,16.65l0-1.81h1l.41,1.38a2.69,2.69,0,0,0,.8.12c.66,0,1.08-.35,1.08-.79s-.46-.84-1.4-1.08c-1.33-.33-2-.76-2-1.85s.9-1.83,2.34-1.83A12.07,12.07,0,0,1,77,11l.53-.14v2h-.92l-.54-1.37a2.78,2.78,0,0,0-.83-.13c-.61,0-1,.29-1,.71s.36.76,1.19,1c1.57.4,2.28.87,2.28,2s-1,1.92-2.56,1.92m11.37-3.83-.17-.71c-.18-.76-.52-.92-.95-.92h-.22V15.9c0,.11.06.18.21.22l.47.11,0,.53H82.66l0-.53.46-.11c.15,0,.21-.11.21-.22V11.43h-.19c-.51,0-.79.21-1,1l-.17.7H81l.19-2.17h6.33v2.17ZM91.14,17a1.1,1.1,0,0,1,0-2.19,1.1,1.1,0,0,1,0,2.19m9.8-.2,0-.59.67-.14c.21-.05.28-.15.28-.28V12l-1.29-.13,0-.47,3.14-.83v5.22c0,.13.08.24.29.28l.7.14,0,.59Zm9.7-5.43c-.57,0-.85.52-.85,1.65,0,1.33.57,2,1.3,2a1.12,1.12,0,0,0,.69-.23,3.49,3.49,0,0,0,0-.77c0-1.22-.39-2.61-1.18-2.61m-2.31,7.87-.25-.55a4.45,4.45,0,0,0,3.81-3.26l-.05-.05A3.13,3.13,0,0,1,110,16a2.25,2.25,0,0,1-2.17-2.48,3,3,0,0,1,3-2.91,3.06,3.06,0,0,1,3,3.37c0,2.74-2.18,5-5.52,5.23M119.21,19h-1.13l3.65-6.83h-1.24c-2,0-2.16.08-2.35.4l-.4.75h-.54l.34-2.55H123l.06.47L119.21,19Zm12.21-2.27h-5.24l-.1-1c1.57-1.12,2.77-1.88,2.77-2.82a1,1,0,0,0-1-1.08c-.6,0-1,.34-1.38.89l-.3-.16a2.71,2.71,0,0,1,2.71-2c1.15,0,2,.63,2,1.62,0,1.24-1.81,2.15-3.34,3.19v.06h.84c2,0,2.26,0,2.45-.34l.31-.56h.53l-.2,2.19Z"/></svg>