<svg width="43" height="20" viewBox="0 0 43 20" xmlns="http://www.w3.org/2000/svg"><title>discover</title><path d="M38.302 3.314h-.38V1.297h.4c.82 0 1.257.34 1.257.98 0 .678-.44 1.037-1.278 1.037zm3.194 3.572L39.4 4.092c.978-.2 1.517-.858 1.517-1.877C40.917.96 40.06.24 38.562.24h-1.936v6.646h1.297V4.232h.18L39.9 6.886h1.596zm-5.73 0V5.768h-2.374V3.972h2.296V2.854h-2.296V1.378h2.375V.24h-3.672v6.646h3.672zM31.517.24h-1.417L28.3 4.71 26.526.24H25.11l2.834 6.826h.698L31.515.24zM21.995 0C20 0 18.383 1.617 18.383 3.613S20 7.225 21.996 7.225c1.995 0 3.612-1.616 3.612-3.612S23.99 0 21.996 0zm-3.993 5.13c-.52.52-.977.738-1.556.738-1.318 0-2.236-.958-2.236-2.295 0-1.277.96-2.296 2.177-2.296.62 0 1.077.22 1.616.76V.498c-.56-.28-1.038-.4-1.595-.4-1.957 0-3.534 1.537-3.534 3.473 0 1.956 1.536 3.473 3.513 3.473.56 0 1.038-.1 1.616-.38V5.13zm24.59 3.074C39.4 10.2 28.164 16.587 10 20h31.316c.7 0 1.278-.58 1.278-1.277V8.203zM10.54 2.794c-.778-.278-.998-.478-.998-.837 0-.42.4-.74.96-.74.398 0 .718.16 1.057.54l.678-.88C11.675.38 10.998.14 10.28.14c-1.178 0-2.077.82-2.077 1.896 0 .92.42 1.398 1.638 1.837.5.18.76.28.9.38.258.158.378.398.378.677 0 .54-.42.938-1 .938-.617 0-1.116-.3-1.416-.878l-.838.8c.6.876 1.318 1.276 2.295 1.276 1.357 0 2.295-.898 2.295-2.195 0-1.057-.44-1.536-1.917-2.075zm-4.47 4.092h1.297V.24H6.068v6.646zM3.412 5.25c-.398.36-.937.518-1.775.518h-.34v-4.39h.34c.838 0 1.357.14 1.775.538.46.4.72 1.02.72 1.657 0 .64-.26 1.258-.72 1.677zM1.896.24H0v6.646h1.896c.998 0 1.737-.22 2.376-.758.758-.64 1.197-1.577 1.197-2.555C5.47 1.617 4.01.24 1.895.24z" fill="#828282" fill-rule="evenodd"/></svg>