<svg width="44" height="27" viewBox="0 0 44 27" xmlns="http://www.w3.org/2000/svg"><title>mastercard</title><path d="M39.752 12.37c-.602 0-1.035.697-1.035 1.707 0 .674.217 1.01.674 1.01.627 0 1.084-.697 1.084-1.732 0-.65-.265-.986-.722-.986zm2.67-2.408l-1.033 6.305h-1.277l.073-.457c-.386.385-.746.553-1.252.553-.987 0-1.636-.842-1.636-2.117 0-1.71 1.01-3.152 2.214-3.152.505 0 .914.216 1.275.697l.288-1.828h1.348zm-5.245 2.647c-.77-.073-.866.53-1.37 3.657h-1.35l.073-.337c.29-1.588.53-3.2.7-4.79h1.25c0 .266-.048.53-.097.795.433-.625.746-.938 1.3-.817-.17.288-.385.842-.506 1.49zm-4.668 1.37c-.77 0-1.156.266-1.156.77 0 .314.193.53.48.53.555 0 .94-.53.964-1.3h-.29zm1.683-.432c-.12.746-.36 2.334-.41 2.72H32.68l.023-.53c-.336.433-.793.625-1.42.625-.744 0-1.225-.577-1.225-1.395 0-1.252.866-1.974 2.358-1.974.168 0 .36 0 .553.024.05-.168.05-.24.05-.312 0-.36-.243-.482-.868-.482-.65 0-1.203.17-1.42.24 0 0 0-.095.193-1.154.675-.192 1.107-.265 1.613-.265 1.156 0 1.757.506 1.757 1.492 0 .265-.024.578-.097 1.01zm-4.018-2.046c-.482-.24-.82-.336-1.203-.336-1.01 0-1.708.986-1.708 2.358 0 .962.457 1.54 1.25 1.54.338 0 .698-.096 1.156-.313l-.24 1.42c-.506.145-.82.193-1.204.193-1.444 0-2.36-1.035-2.36-2.72 0-2.26 1.253-3.825 3.058-3.825.577 0 1.275.24 1.468.313l-.217 1.372zm-4.813 1.107c-.746-.073-.866.53-1.347 3.657h-1.348l.072-.337c.264-1.588.53-3.2.698-4.79h1.226c.025.266-.048.53-.072.795.41-.625.722-.938 1.3-.817-.17.288-.385.842-.53 1.49zm-4.066.505c0-.097.144-.914-.626-.914-.434 0-.746.337-.866.915h1.492zm1.082 1.034h-2.67c-.097.745.385 1.058 1.154 1.058.482 0 .914-.096 1.396-.337l-.217 1.3c-.456.12-.913.193-1.37.193-1.516 0-2.286-.794-2.286-2.286 0-1.756.986-3.032 2.334-3.032 1.107 0 1.83.722 1.83 1.853 0 .36-.05.746-.17 1.25zm-4.042-3.01l-.17 1.253h-.696c-.145.962-.385 2.19-.385 2.334 0 .265.144.385.457.385.168 0 .288-.024.385-.048l-.193 1.13c-.36.12-.65.17-.962.17-.698 0-1.06-.386-1.083-1.132 0-.217.095-.818.19-1.347 0 0 .073-.48.602-3.514h1.325l-.145.77h.674zm-2.984 1.18c-.36-.048-.722-.072-.987-.072-.432 0-.65.145-.65.41 0 .24.05.313.626.553.675.314.964.747.964 1.445 0 1.18-.674 1.733-2.094 1.708-.817 0-1.106-.072-1.395-.144 0 0 0-.05.168-1.18.433.12.818.192 1.227.192.53 0 .77-.144.77-.457 0-.24-.096-.313-.625-.577-.722-.337-1.035-.77-1.035-1.42 0-.963.505-1.733 2.02-1.733.314 0 .844.024 1.205.096l-.193 1.18zm-5.366 1.66c-.746 0-1.13.266-1.13.77 0 .314.167.53.48.53.554 0 .938-.53.963-1.3h-.314zm1.708-.432c-.12.746-.384 2.334-.41 2.72h-1.13l.025-.53c-.338.433-.795.625-1.397.625-.746 0-1.252-.577-1.252-1.395 0-1.252.892-1.974 2.384-1.974.144 0 .337 0 .553.024.024-.168.05-.24.05-.312 0-.36-.243-.482-.868-.482-.674 0-1.204.17-1.42.24 0 0 0-.095.168-1.154.673-.192 1.13-.265 1.612-.265 1.18 0 1.78.506 1.78 1.492 0 .265-.048.578-.096 1.01zM7.796 9.962l-1.06 6.305H5.39l.77-4.836-1.71 4.837h-.937l-.096-4.813-.818 4.813H1.322l1.06-6.305H4.33l.05 3.923 1.323-3.923h2.093zM30.656 0c-2.96 0-5.678.987-7.892 2.647 1.972 1.805 3.417 4.163 4.114 6.834h-1.203c-.697-2.38-2.022-4.474-3.802-6.087C20.093 5.006 18.77 7.1 18.07 9.48H16.87c.697-2.67 2.142-5.028 4.114-6.833C18.77.987 16.05 0 13.09 0 5.847 0 0 5.872 0 13.09c0 7.22 5.847 13.09 13.09 13.09 2.96 0 5.68-.986 7.892-2.646-1.852-1.708-3.248-3.898-3.97-6.353h1.204c.722 2.167 1.997 4.116 3.657 5.608 1.66-1.492 2.936-3.44 3.657-5.607h1.203c-.72 2.456-2.117 4.646-3.97 6.354 2.215 1.66 4.933 2.647 7.893 2.647 7.243 0 13.09-5.87 13.09-13.09C43.746 5.873 37.9 0 30.656 0z" fill="#828282" fill-rule="evenodd"/></svg>