<svg width="50" height="14" viewBox="0 0 50 14" xmlns="http://www.w3.org/2000/svg"><title>paypal</title><path d="M49.284.337c0-.192-.145-.337-.312-.337H47.19c-.144 0-.288.12-.312.265l-1.565 10.01-.023.048c0 .17.143.337.337.337h1.588c.24 0 .48-.192.505-.457L49.284.36V.338zM40.092 8.88c-.89 0-1.564-.506-1.564-1.444 0-1.18.914-2.118 2.093-2.118.892 0 1.565.554 1.565 1.492 0 1.18-.938 2.07-2.093 2.07zm4.933-4.958c.024-.192-.12-.384-.313-.384h-1.828c-.362 0-.386.53-.41.794-.53-.82-1.347-.963-2.286-.963-2.358 0-4.163 2.07-4.163 4.355 0 1.876 1.18 3.104 3.056 3.104.89 0 1.975-.387 2.552-1.06-.024.144-.096.36-.096.505 0 .217.096.385.312.385h1.66c.265 0 .482-.192.53-.457l.987-6.28zM31.622 4.957l-.77.024.41-2.574c.023-.168.143-.264.312-.264h.433c.818 0 1.732.048 1.732 1.083 0 1.444-.867 1.732-2.118 1.732zM33.258 0H29.43c-.263 0-.503.192-.528.458l-1.563 9.817c-.026.193.12.385.31.385h1.975c.192 0 .337-.144.385-.313l.432-2.79c.097-.7 1.276-.458 1.734-.458 2.743 0 4.426-1.638 4.426-4.405C36.602.675 35.04 0 33.258 0zm-6.112 3.538h-1.853c-.168 0-.337.096-.433.24l-2.55 3.754-1.06-3.61c-.07-.216-.288-.384-.528-.384h-1.805c-.17 0-.314.168-.314.336 0 .12 1.877 5.56 2.046 6.064-.265.36-1.974 2.6-1.974 2.888 0 .168.144.313.312.313h1.854c.168 0 .337-.097.432-.242l6.137-8.855c.05-.048.05-.097.05-.17 0-.167-.146-.335-.314-.335zm-14.414 5.34c-.89 0-1.54-.504-1.54-1.442 0-1.18.914-2.118 2.094-2.118.89 0 1.563.554 1.563 1.492 0 1.18-.94 2.07-2.118 2.07zm4.957-4.956c.023-.192-.12-.384-.313-.384h-1.83c-.36 0-.384.53-.41.794-.552-.82-1.37-.963-2.285-.963-2.358 0-4.163 2.07-4.163 4.355 0 1.876 1.18 3.104 3.056 3.104.866 0 1.95-.387 2.55-1.06-.048.144-.096.36-.096.505 0 .217.097.385.313.385h1.66c.265 0 .48-.192.53-.457l.986-6.28zM4.285 4.957l-.794.024.41-2.574c.023-.168.167-.264.312-.264h.457c1.084 0 1.902.144 1.685 1.444-.192 1.227-1.01 1.37-2.07 1.37zM5.923 0h-3.85c-.24 0-.482.192-.506.458L.003 10.275c-.025.193.12.385.312.385h1.83c.264 0 .504-.192.53-.457l.432-2.647C3.203 6.858 4.383 7.1 4.84 7.1c2.743 0 4.427-1.638 4.427-4.405C9.267.675 7.703 0 5.923 0z" fill="#828282" fill-rule="evenodd"/></svg>