<svg width="50" height="16" viewBox="0 0 50 16" xmlns="http://www.w3.org/2000/svg"><title>visa</title><path d="M41.124 10.227s.337-.89 1.588-4.307c-.025.024.337-.89.53-1.468l.288 1.323c.746 3.682.914 4.452.914 4.452h-3.32zM42.977.265c-.962 0-1.685.29-2.094 1.3l-5.92 14.15h4.187c.674-1.903.843-2.31.843-2.31h5.102s.12.528.48 2.31h3.706L46.058.264h-3.08zM32.244 0c-3.946 0-6.713 2.094-6.737 5.102-.025 2.213 1.973 3.44 3.49 4.187 1.564.745 2.068 1.25 2.068 1.924 0 1.034-1.25 1.492-2.38 1.492-1.614 0-2.48-.193-3.755-.794l-.53-.265-.553 3.465c.938.433 2.646.818 4.45.818 4.188.024 6.907-2.07 6.956-5.27 0-1.756-1.083-3.08-3.37-4.186-1.395-.7-2.238-1.204-2.238-1.926 0-.65.722-1.323 2.287-1.323 1.3-.024 2.26.24 2.984.577l.36.193L35.83.65C35.036.337 33.784 0 32.244 0zm-10.9 15.714L23.847.264h-3.994l-2.503 15.45h3.994zm-11.238-4.91l-.41-2.14C8.857 6.423 6.81 4.355 4.5 3.416L7.748 15.69h4.21L18.24.264h-4.235l-3.9 10.54zm-1.804-9.24c-.193-.986-.94-1.3-1.805-1.3H.047L0 .58c4.428 1.13 8.06 3.537 9.697 8.085l-1.395-7.1z" fill="#828282" fill-rule="evenodd"/></svg>